<svg width="15" height="18" viewBox="0 0 15 18" fill="none" xmlns="http://www.w3.org/2000/svg">
<path fill-rule="evenodd" clip-rule="evenodd" d="M0 2.18192C0 1.03216 0.93207 0.100098 2.08182 0.100098H12.7182C13.868 0.100098 14.8 1.03217 14.8 2.18192V15.1819C14.8 16.3317 13.868 17.2637 12.7182 17.2637H2.08182C0.932079 17.2637 0 16.3317 0 15.1819V2.18192ZM2.08182 1.9001C1.92618 1.9001 1.8 2.02627 1.8 2.18192V15.1819C1.8 15.3376 1.92617 15.4637 2.08182 15.4637H12.7182C12.8738 15.4637 13 15.3376 13 15.1819V2.18192C13 2.02626 12.8738 1.9001 12.7182 1.9001H2.08182Z" fill="black"/>
<path fill-rule="evenodd" clip-rule="evenodd" d="M7.4 0.100098C7.89706 0.100098 8.3 0.503041 8.3 1.0001V16.3637C8.3 16.8608 7.89706 17.2637 7.4 17.2637C6.90294 17.2637 6.5 16.8608 6.5 16.3637V1.0001C6.5 0.503041 6.90294 0.100098 7.4 0.100098Z" fill="black"/>
<path fill-rule="evenodd" clip-rule="evenodd" d="M10.3545 7.19101C10.8516 7.19101 11.2545 7.59395 11.2545 8.09101V9.27283C11.2545 9.76988 10.8516 10.1728 10.3545 10.1728C9.85749 10.1728 9.45455 9.76988 9.45455 9.27283V8.09101C9.45455 7.59395 9.85749 7.19101 10.3545 7.19101Z" fill="#1F183A"/>
<path fill-rule="evenodd" clip-rule="evenodd" d="M4.44545 7.19101C4.94251 7.19101 5.34545 7.59395 5.34545 8.09101V9.27283C5.34545 9.76988 4.94251 10.1728 4.44545 10.1728C3.9484 10.1728 3.54545 9.76988 3.54545 9.27283V8.09101C3.54545 7.59395 3.9484 7.19101 4.44545 7.19101Z" fill="#1F183A"/>
</svg>
