<svg width="20" height="19" viewBox="0 0 20 19" fill="none" xmlns="http://www.w3.org/2000/svg">
<path fill-rule="evenodd" clip-rule="evenodd" d="M9.53716 0.0598996C9.84055 -0.0199666 10.1595 -0.0199666 10.4628 0.0598997C10.8149 0.152564 11.1136 0.378664 11.3518 0.558999C11.3745 0.576161 11.3966 0.592909 11.4182 0.609088L11.9699 1.02288C12.0393 1.07445 12.1097 1.12735 12.1812 1.18118C12.2164 1.2077 12.252 1.23445 12.2879 1.26138C12.2889 1.26213 12.2899 1.26288 12.2909 1.26363L17.8181 5.40906C17.8181 5.40902 17.8182 5.4091 17.8181 5.40906L19.6363 6.77269C20.038 7.07393 20.1194 7.64375 19.8181 8.04541C19.5169 8.44707 18.9471 8.52847 18.5454 8.22723L18.1818 7.9545V15.0804C18.1818 15.5596 18.1818 15.9731 18.154 16.3136C18.1246 16.673 18.0598 17.0304 17.8845 17.3744C17.623 17.8876 17.2058 18.3048 16.6927 18.5663C16.3487 18.7415 15.9912 18.8064 15.6318 18.8357C15.2913 18.8636 14.8779 18.8635 14.3987 18.8635H5.60133C5.12211 18.8635 4.7087 18.8636 4.36819 18.8357C4.00879 18.8064 3.65132 18.7415 3.30734 18.5663C2.79417 18.3048 2.37695 17.8876 2.11548 17.3744C1.94022 17.0304 1.87538 16.673 1.84602 16.3136C1.8182 15.9731 1.81821 15.5596 1.81823 15.0804L1.81823 7.9545L1.45459 8.22723C1.05293 8.52847 0.483115 8.44707 0.181871 8.04541C-0.119374 7.64375 -0.0379714 7.07393 0.363688 6.77269L7.70911 1.26363C7.71062 1.26249 7.71214 1.26136 7.71365 1.26022C7.74902 1.23369 7.78406 1.20732 7.81881 1.18118C7.89033 1.12736 7.96063 1.07447 8.03007 1.02291L8.58183 0.609087C8.6034 0.592909 8.62552 0.576161 8.6482 0.558999C8.88644 0.378663 9.18514 0.152564 9.53716 0.0598996ZM3.6364 6.59087V15.0454C3.6364 15.5695 3.63711 15.9079 3.65815 16.1655C3.67833 16.4125 3.71258 16.504 3.73549 16.549C3.82264 16.72 3.96171 16.8591 4.13277 16.9463C4.17772 16.9692 4.26928 17.0034 4.51625 17.0236C4.77382 17.0447 5.11225 17.0454 5.63639 17.0454H6.36366L6.36366 11.1982C6.36363 10.9688 6.3636 10.7453 6.37906 10.5561C6.39604 10.3483 6.4361 10.1031 6.56183 9.85633C6.73614 9.51422 7.01429 9.23607 7.3564 9.06176C7.60315 8.93603 7.84836 8.89597 8.05617 8.87899C8.24541 8.86353 8.46886 8.86356 8.6983 8.86359H11.3017C11.5311 8.86356 11.7546 8.86353 11.9438 8.87899C12.1516 8.89597 12.3969 8.93603 12.6436 9.06176C12.9857 9.23607 13.2639 9.51422 13.4382 9.85633C13.5639 10.1031 13.604 10.3483 13.6209 10.5561C13.6364 10.7453 13.6364 10.9688 13.6363 11.1982L13.6363 17.0454H14.3636C14.8878 17.0454 15.2262 17.0447 15.4838 17.0236C15.7307 17.0034 15.8223 16.9692 15.8672 16.9463C16.0383 16.8591 16.1774 16.72 16.2645 16.549C16.2874 16.504 16.3217 16.4125 16.3419 16.1655C16.3629 15.9079 16.3636 15.5695 16.3636 15.0454V6.59087L11.2 2.71817C10.5094 2.20019 10.3615 2.10963 10.2314 2.07539C10.0797 2.03546 9.92028 2.03546 9.76858 2.07539C9.63852 2.10963 9.49065 2.20019 8.80001 2.71817L3.6364 6.59087ZM11.8182 17.0454V11.2272C11.8182 10.9576 11.8175 10.8101 11.8088 10.7042C11.8085 10.6999 11.8081 10.6959 11.8078 10.6922C11.804 10.6918 11.8 10.6915 11.7958 10.6911C11.6898 10.6825 11.5423 10.6818 11.2727 10.6818H8.72728C8.45771 10.6818 8.31021 10.6825 8.20422 10.6911C8.2 10.6915 8.19601 10.6918 8.19224 10.6922C8.19189 10.6959 8.19154 10.6999 8.1912 10.7042C8.18254 10.8101 8.18183 10.9576 8.18183 11.2272V17.0454H11.8182Z" fill="#1E1E1E"/>
</svg>
